<svg width="30" height="25" viewBox="0 0 30 25" fill="none" xmlns="http://www.w3.org/2000/svg">
<path d="M8.85313 14.8437H16.0156C16.6584 14.8437 17.1875 15.3728 17.1875 16.0156C17.1875 16.6584 16.6584 17.1875 16.0156 17.1875H11.875C11.5322 17.1875 11.25 17.4697 11.25 17.8125C11.25 18.1553 11.5322 18.4375 11.875 18.4375H16.0156C17.3444 18.4375 18.4375 17.3444 18.4375 16.0156C18.4375 14.6869 17.3444 13.5938 16.0156 13.5938H8.59375C8.42844 13.5944 8.26969 13.6609 8.15313 13.7781L5.46563 16.4625C5.34781 16.3284 5.17844 16.2512 5 16.25H0.625C0.282188 16.25 0 16.5322 0 16.875V24.375C0 24.7178 0.282188 25 0.625 25H5C5.34281 25 5.625 24.7178 5.625 24.375V18.0719L8.85313 14.8437ZM4.375 23.75H1.25V17.5H4.375V23.75Z" fill="#B4B8D7"/>
<path d="M28.4906 13.8564L28.3313 13.697C27.8625 13.2276 27.2256 12.9639 26.5625 12.9639C25.8994 12.9639 25.2625 13.2276 24.7938 13.697L20.0531 18.4376H18.125C17.7822 18.4376 17.5 18.7198 17.5 19.0626C17.5 19.4054 17.7822 19.6876 18.125 19.6876H20.3125C20.4778 19.687 20.6366 19.6204 20.7531 19.5032L25.6781 14.5814C25.9125 14.3467 26.2309 14.2148 26.5625 14.2148C26.8941 14.2148 27.2125 14.3467 27.4469 14.5814L27.6063 14.7407C27.8409 14.9751 27.9728 15.2936 27.9728 15.6251C27.9728 15.9567 27.8409 16.2751 27.6063 16.5095L21.5406 22.5751C21.1909 22.9289 20.7131 23.127 20.2156 23.1251H7.1875C6.84469 23.1251 6.5625 23.4073 6.5625 23.7501C6.5625 24.0929 6.84469 24.3751 7.1875 24.3751H20.2156C21.0444 24.3773 21.8406 24.0473 22.425 23.4595L28.4906 17.3939C28.96 16.9251 29.2238 16.2882 29.2238 15.6251C29.2238 14.962 28.96 14.3251 28.4906 13.8564Z" fill="#B4B8D7"/>
<path d="M2.8125 20.3125C2.46969 20.3125 2.1875 20.5947 2.1875 20.9375V21.5625C2.1875 21.9053 2.46969 22.1875 2.8125 22.1875C3.15531 22.1875 3.4375 21.9053 3.4375 21.5625V20.9375C3.4375 20.5947 3.15531 20.3125 2.8125 20.3125Z" fill="#B4B8D7"/>
<path d="M19.6875 11.875C22.9447 11.875 25.625 9.19469 25.625 5.9375C25.625 2.68031 22.9447 0 19.6875 0C16.4303 0 13.75 2.68031 13.75 5.9375C13.75 9.19469 16.4303 11.875 19.6875 11.875ZM19.6875 1.25C22.2591 1.25 24.375 3.36594 24.375 5.9375C24.375 8.50906 22.2591 10.625 19.6875 10.625C17.1159 10.625 15 8.50906 15 5.9375C15 3.36594 17.1159 1.25 19.6875 1.25Z" fill="#B4B8D7"/>
<path d="M19.3746 6.5625H19.9996C20.1712 6.5625 20.3121 6.70344 20.3121 6.875C20.3121 7.04656 20.1712 7.1875 19.9996 7.1875H18.7496C18.4068 7.1875 18.1246 7.46969 18.1246 7.8125C18.1246 8.15531 18.4068 8.4375 18.7496 8.4375H19.0621V8.75C19.0621 9.09281 19.3443 9.375 19.6871 9.375C20.0299 9.375 20.3121 9.09281 20.3121 8.75V8.40625C21.0377 8.25906 21.5637 7.61531 21.5637 6.875C21.5637 6.01781 20.8584 5.3125 20.0012 5.3125C20.0005 5.3125 20.0002 5.3125 19.9996 5.3125H19.3746C19.203 5.3125 19.0621 5.17156 19.0621 5C19.0621 4.82844 19.203 4.6875 19.3746 4.6875H20.6246C20.9674 4.6875 21.2496 4.40531 21.2496 4.0625C21.2496 3.71969 20.9674 3.4375 20.6246 3.4375H20.3121V3.125C20.3121 2.78219 20.0299 2.5 19.6871 2.5C19.3443 2.5 19.0621 2.78219 19.0621 3.125V3.46875C18.3365 3.61594 17.8105 4.25969 17.8105 5C17.8105 5.85719 18.5159 6.5625 19.373 6.5625C19.3737 6.5625 19.374 6.5625 19.3746 6.5625Z" fill="#B4B8D7"/>
</svg>
