<svg width="26" height="24" viewBox="0 0 26 24" fill="none" xmlns="http://www.w3.org/2000/svg">
<path d="M12.9059 0C10.5303 0 8.60414 1.9538 8.60414 4.36349C8.60414 5.58879 9.10617 6.69333 9.90858 7.48598L6.52148 13.4976L8.39087 14.5769L11.7822 8.55779C12.1425 8.65695 12.5142 8.72731 12.9059 8.72731C15.2815 8.72731 17.2077 6.77318 17.2077 4.36349C17.2077 1.9538 15.2815 0 12.9059 0ZM12.9059 6.5454C11.7179 6.5454 10.7549 5.5685 10.7549 4.36349C10.7549 3.15848 11.7179 2.18191 12.9059 2.18191C14.0939 2.18191 15.057 3.15848 15.057 4.36349C15.057 5.5685 14.0939 6.5454 12.9059 6.5454Z" fill="#B4B8D7"/>
<path d="M8.45127 18.5452C7.9715 16.667 6.30377 15.2725 4.30178 15.2725C1.92617 15.2725 0 17.2263 0 19.636C0 22.0456 1.92617 23.9998 4.30178 23.9998C6.30377 23.9998 7.9715 22.6049 8.45127 20.7271H15.1529V18.5452H8.45127ZM4.30178 21.8179C3.11381 21.8179 2.15105 20.841 2.15105 19.636C2.15105 18.4309 3.11381 17.4544 4.30178 17.4544C5.48975 17.4544 6.45283 18.4309 6.45283 19.636C6.45283 20.841 5.48975 21.8179 4.30178 21.8179Z" fill="#B4B8D7"/>
<path d="M21.5098 15.2728C21.1177 15.2728 20.7461 15.3432 20.386 15.4423L16.9947 9.42285L15.125 10.5022L18.5121 16.5138C17.71 17.3065 17.2077 18.4103 17.2077 19.6363C17.2077 22.046 19.1341 24.0001 21.5098 24.0001C23.8854 24.0001 25.8115 22.046 25.8115 19.6363C25.8115 17.2266 23.8854 15.2728 21.5098 15.2728ZM21.5098 21.8182C20.3218 21.8182 19.3587 20.8413 19.3587 19.6363C19.3587 18.4313 20.3218 17.4547 21.5098 17.4547C22.6977 17.4547 23.6605 18.4313 23.6605 19.6363C23.6605 20.8413 22.6977 21.8182 21.5098 21.8182Z" fill="#B4B8D7"/>
</svg>
