<svg width="22" height="28" viewBox="0 0 22 28" fill="none" xmlns="http://www.w3.org/2000/svg">
<path fill-rule="evenodd" clip-rule="evenodd" d="M10.6905 11.0255C13.2186 11.0255 15.3186 8.92746 15.3186 6.27642C15.3186 3.62535 13.2186 1.52727 10.6905 1.52727C8.1624 1.52727 6.0624 3.62535 6.0624 6.27642C6.0624 8.92746 8.1624 11.0255 10.6905 11.0255ZM10.6905 12.5528C14.09 12.5528 16.8459 9.74277 16.8459 6.27642C16.8459 2.81004 14.09 0 10.6905 0C7.29099 0 4.53516 2.81004 4.53516 6.27642C4.53516 9.74277 7.29099 12.5528 10.6905 12.5528Z" fill="#B4B8D7"/>
<path fill-rule="evenodd" clip-rule="evenodd" d="M19.2583 24.7123C19.5938 24.1922 19.8545 23.3826 19.8545 22.07C19.8545 16.8534 15.7217 12.6796 10.6909 12.6796C5.66003 12.6796 1.52727 16.8534 1.52727 22.07C1.52727 23.3826 1.78801 24.1922 2.1235 24.7123C2.44857 25.2161 2.93488 25.5898 3.66959 25.8666C4.43145 26.1535 5.41058 26.3161 6.63057 26.397C7.77414 26.4728 9.03306 26.4725 10.4221 26.4722C10.5111 26.4721 10.6008 26.4721 10.6909 26.4721C10.7811 26.4721 10.8707 26.4721 10.9598 26.4722C12.3487 26.4725 13.6076 26.4728 14.7512 26.397C15.9712 26.3161 16.9503 26.1535 17.7122 25.8666C18.4469 25.5898 18.9332 25.2161 19.2583 24.7123ZM10.9759 27.9995C16.7486 28.001 21.3818 28.0023 21.3818 22.07C21.3818 16.0403 16.5953 11.1523 10.6909 11.1523C4.78648 11.1523 0 16.0403 0 22.07C0 28.0023 4.63321 28.001 10.4059 27.9995C10.5006 27.9995 10.5956 27.9994 10.6909 27.9994C10.7862 27.9994 10.8812 27.9995 10.9759 27.9995Z" fill="#B4B8D7"/>
</svg>
