<svg width="50" height="50" viewBox="0 0 50 50" fill="none" xmlns="http://www.w3.org/2000/svg">
<g clip-path="url(#clip0_103:79)">
<path d="M21.1538 0H1.92312C0.860991 0 0 0.860991 0 1.92312V21.1539C0 22.2161 0.860991 23.0771 1.92312 23.0771H21.1539C22.2161 23.0771 23.0771 22.2161 23.0771 21.1539V1.92312C23.0769 0.860991 22.216 0 21.1538 0Z" fill="#F74D06"/>
<path d="M48.0758 0H28.845C27.7829 0 26.9219 0.860991 26.9219 1.92312V21.1539C26.9219 22.2161 27.7829 23.0771 28.845 23.0771H48.0758C49.138 23.0771 49.9989 22.2161 49.9989 21.1539V1.92312C49.9988 0.860991 49.1378 0 48.0758 0Z" fill="#F74D06"/>
<path d="M21.1538 26.9229H1.92312C0.860991 26.9229 0 27.7838 0 28.846V48.0768C0 49.1389 0.860991 49.9999 1.92312 49.9999H21.1539C22.2161 49.9999 23.0771 49.1389 23.0771 48.0768V28.846C23.0769 27.7838 22.216 26.9229 21.1538 26.9229Z" fill="#F74D06"/>
<path d="M48.0758 36.5383H40.3835V28.846C40.3835 27.7838 39.5225 26.9229 38.4603 26.9229C37.3982 26.9229 36.5372 27.7838 36.5372 28.846V36.5383H28.845C27.7829 36.5383 26.9219 37.3993 26.9219 38.4615C26.9219 39.5236 27.7829 40.3845 28.845 40.3845H36.5373V48.0768C36.5373 49.1389 37.3983 49.9999 38.4605 49.9999C39.5226 49.9999 40.3836 49.1389 40.3836 48.0768V40.3845H48.0759C49.138 40.3845 49.999 39.5235 49.999 38.4613C49.999 37.3992 49.1378 36.5383 48.0758 36.5383Z" fill="#F74D06"/>
</g>
<defs>
<clipPath id="clip0_103:79">
<rect width="50" height="50" fill="white"/>
</clipPath>
</defs>
</svg>
