<svg width="50" height="50" viewBox="0 0 50 50" fill="none" xmlns="http://www.w3.org/2000/svg">
<path d="M33.3435 3.78902H29.6851C29.2286 3.77489 28.8364 3.46101 28.7224 3.01888C28.3757 1.21781 26.7687 -0.062392 24.9357 0.00234893C23.0916 -0.0299601 21.4925 1.271 21.149 3.08313C21.0304 3.5131 20.632 3.80523 20.1863 3.78914H16.6562V10.2073H33.3435V3.78902Z" fill="#F74D06"/>
<path d="M43.6129 47.0475V10.2714C43.6168 8.8181 42.4418 7.6368 40.9885 7.63286C40.9219 7.63274 40.8553 7.63508 40.7888 7.63987H35.2692V10.9132C35.2692 11.4267 34.9483 12.1327 34.4348 12.1327H15.5012C14.9877 12.1327 14.7311 11.4267 14.7311 10.9132V7.63999H9.21137C7.76201 7.5336 6.50073 8.62241 6.39447 10.0719C6.38955 10.1383 6.38722 10.2049 6.38746 10.2715V47.0477C6.35159 48.6424 7.61533 49.9642 9.21002 50C9.21051 50 9.211 50 9.21149 50H40.789C42.3837 49.9649 43.648 48.6437 43.613 47.049C43.6129 47.0485 43.6129 47.048 43.6129 47.0475ZM19.8014 38.5756L14.7952 43.2609C14.6351 43.4524 14.4026 43.5686 14.1534 43.5818C13.8852 43.5712 13.6318 43.456 13.4474 43.2609L10.816 40.5652C10.4663 40.1736 10.4949 39.574 10.8801 39.2175C11.2545 38.8505 11.8536 38.8505 12.2279 39.2175L14.1533 41.2712L18.5177 37.1636C18.9553 36.8616 19.5549 36.9714 19.8569 37.409C20.1033 37.766 20.0805 38.2436 19.8014 38.5756ZM19.8014 28.3065L14.7952 32.9918C14.6351 33.1833 14.4026 33.2995 14.1534 33.3126C13.8852 33.3021 13.6318 33.1869 13.4474 32.9918L10.816 30.2961C10.4663 29.9045 10.4949 29.3049 10.8801 28.9483C11.2545 28.5814 11.8536 28.5814 12.2279 28.9483L14.1533 31.0021L18.5177 26.8945C18.9553 26.5925 19.5549 26.7023 19.8569 27.1399C20.1033 27.4969 20.0805 27.9745 19.8014 28.3065ZM19.8014 18.0374L14.7952 22.7227C14.6351 22.9142 14.4026 23.0304 14.1534 23.0435C13.8852 23.033 13.6318 22.9177 13.4474 22.7227L10.816 20.027C10.4663 19.6354 10.4949 19.0357 10.8801 18.6792C11.2545 18.3123 11.8536 18.3123 12.2279 18.6792L14.1533 20.733L18.5177 16.6253C18.9553 16.3234 19.5549 16.4332 19.8569 16.8708C20.1033 17.2278 20.0805 17.7054 19.8014 18.0374ZM38.4783 42.2981H23.7164C23.1847 42.2981 22.7536 41.867 22.7536 41.3354C22.7536 40.8037 23.1847 40.3726 23.7164 40.3726H38.4782C39.0099 40.3726 39.4409 40.8037 39.4409 41.3354C39.4409 41.867 39.01 42.2981 38.4783 42.2981ZM38.4783 32.029H23.7164C23.1847 32.029 22.7536 31.5979 22.7536 31.0662C22.7536 30.5346 23.1847 30.1035 23.7164 30.1035H38.4782C39.0099 30.1035 39.4409 30.5346 39.4409 31.0662C39.4409 31.5979 39.01 32.029 38.4783 32.029ZM38.4783 21.7599H23.7164C23.1847 21.7599 22.7536 21.3288 22.7536 20.7971C22.7536 20.2654 23.1847 19.8344 23.7164 19.8344H38.4782C39.0099 19.8344 39.4409 20.2654 39.4409 20.7971C39.4409 21.3289 39.01 21.7599 38.4783 21.7599Z" fill="#F74D06"/>
</svg>
