<svg width="50" height="50" viewBox="0 0 50 50" fill="none" xmlns="http://www.w3.org/2000/svg">
<path d="M40.625 12.6953H38.9656C38.7085 11.8784 38.3794 11.086 37.9807 10.324L39.156 9.14873C39.728 8.57666 39.728 7.64922 39.156 7.07715L35.0127 2.93389C34.4407 2.36182 33.5132 2.36182 32.9411 2.93389L31.7658 4.10918C31.0039 3.71055 30.2113 3.38125 29.3945 3.12422V1.46484C29.3945 0.655859 28.7387 0 27.9297 0H22.0703C21.2613 0 20.6055 0.655859 20.6055 1.46484V3.12422C19.7887 3.38125 18.9961 3.71055 18.2342 4.10918L17.0589 2.93389C16.4869 2.36182 15.5594 2.36182 14.9873 2.93389L10.844 7.07715C10.272 7.64922 10.272 8.57666 10.844 9.14873L12.0193 10.324C11.6207 11.0859 11.2914 11.8785 11.0344 12.6953H9.375C8.56602 12.6953 7.91016 13.3512 7.91016 14.1602V20.0195C7.91016 20.8285 8.56602 21.4844 9.375 21.4844H11.0344C11.2915 22.3012 11.6207 23.0938 12.0193 23.8557L10.844 25.0311C10.5693 25.3058 10.4149 25.6783 10.4149 26.0668C10.4149 26.4554 10.5693 26.8278 10.844 27.1025L14.9873 31.2457C15.5593 31.8178 16.4868 31.8178 17.0589 31.2457L18.2342 30.0704C18.9961 30.469 19.7887 30.7983 20.6055 31.0554V32.7148C20.6055 33.5238 21.2613 34.1797 22.0703 34.1797H27.9297C28.7387 34.1797 29.3945 33.5238 29.3945 32.7148V31.0555C30.2114 30.7983 31.0038 30.4691 31.7659 30.0705L32.9411 31.2458C33.2157 31.5205 33.5884 31.6749 33.9769 31.6749C34.3653 31.6749 34.738 31.5205 35.0126 31.2458L39.1559 27.1026C39.4306 26.8279 39.585 26.4554 39.585 26.0669C39.585 25.6784 39.4307 25.3059 39.1559 25.0312L37.9806 23.8559C38.3792 23.0939 38.7083 22.3015 38.9655 21.4846H40.625C41.434 21.4846 42.0898 20.8287 42.0898 20.0197V14.1604C42.0898 13.3512 41.434 12.6953 40.625 12.6953ZM25 24.9023C20.6922 24.9023 17.1875 21.3977 17.1875 17.0898C17.1875 12.782 20.6922 9.27734 25 9.27734C29.3078 9.27734 32.8125 12.782 32.8125 17.0898C32.8125 21.3977 29.3078 24.9023 25 24.9023Z" fill="#F74D06"/>
<path d="M9.27734 41.2109H12.207V50H9.27734V41.2109Z" fill="#F74D06"/>
<path d="M6.34766 41.2109H2.44141C1.09307 41.2109 0 42.304 0 43.6523V47.5586C0 48.9069 1.09307 50 2.44141 50H6.34766V41.2109Z" fill="#F74D06"/>
<path d="M15.1367 41.2109H37.3047V50H15.1367V41.2109Z" fill="#F74D06"/>
<path d="M48.9562 44.2024L40.2344 41.5859V49.6251L48.9562 47.0086C49.5757 46.8227 50 46.2523 50 45.6055C50 44.9586 49.5757 44.3883 48.9562 44.2024Z" fill="#F74D06"/>
</svg>
