<svg width="50" height="50" viewBox="0 0 50 50" fill="none" xmlns="http://www.w3.org/2000/svg">
<path d="M11.6839 10.1381L31.6165 4.69736L30.5609 2.56373C29.8703 1.17687 28.1858 0.604156 26.799 1.29478L8.95508 10.1381H11.6839Z" fill="#F74D06"/>
<path d="M37.805 4.85449C37.558 4.85449 37.3108 4.88818 37.0638 4.95556L32.3811 6.23574L18.0801 10.138H34.3125H41.3872L40.5113 6.92636C40.1744 5.67426 39.0402 4.85449 37.805 4.85449Z" fill="#F74D06"/>
<path d="M44.3122 12.1035H43.6721H42.8018H41.9315H35.2892H10.8815H7.68108H4.98596H4.48624H2.81303C1.92588 12.1035 1.13419 12.5134 0.617631 13.1591C0.381808 13.4567 0.202134 13.7992 0.101067 14.1754C0.0393038 14.4112 0 14.6583 0 14.9109V15.2478V18.4483V46.1911C0 47.7409 1.25772 48.9985 2.80741 48.9985H44.3066C45.8563 48.9985 47.114 47.7409 47.114 46.1911V38.3584H30.4548C27.8215 38.3584 25.6822 36.2192 25.6822 33.5858V31.0142V30.1439V29.2736V27.3421C25.6822 26.0507 26.1987 24.8773 27.0354 24.0182C27.7765 23.2546 28.7704 22.738 29.8821 22.6089C30.0674 22.5864 30.2583 22.5752 30.4492 22.5752H44.7782H45.6485H46.5188H47.114V14.9109C47.1196 13.3612 45.8619 12.1035 44.3122 12.1035Z" fill="#F74D06"/>
<path d="M49.0839 25.2587C48.8031 25.0004 48.4718 24.8039 48.1013 24.6747C47.8148 24.5793 47.5117 24.5232 47.1917 24.5232H47.1187H47.0625H46.1922H43.0535H30.4539C28.9041 24.5232 27.6465 25.7809 27.6465 27.3306V28.7286V29.5989V30.4692V33.5798C27.6465 35.1295 28.9041 36.3873 30.4539 36.3873H47.1187H47.1917C47.5117 36.3873 47.8149 36.3311 48.1013 36.2357C48.4718 36.1121 48.8031 35.91 49.0839 35.6517C49.6453 35.1408 49.9991 34.3996 49.9991 33.5799V27.3306C49.9991 26.5108 49.6453 25.7696 49.0839 25.2587ZM36.3158 31.0139C36.3158 31.7887 35.6869 32.4176 34.9121 32.4176H33.98C33.2052 32.4176 32.5763 31.7887 32.5763 31.0139V30.0818C32.5763 29.6326 32.784 29.2339 33.1153 28.9813C33.3568 28.796 33.6544 28.6781 33.98 28.6781H34.2158H34.9121C35.6869 28.6781 36.3158 29.3069 36.3158 30.0818V31.0139Z" fill="#F74D06"/>
</svg>
