<?xml version="1.0" standalone="no"?>
<!DOCTYPE svg PUBLIC "-//W3C//DTD SVG 20010904//EN"
 "http://www.w3.org/TR/2001/REC-SVG-20010904/DTD/svg10.dtd">
<svg version="1.0" xmlns="http://www.w3.org/2000/svg"
 width="1280.000000pt" height="1217.000000pt" viewBox="0 0 1280.000000 1217.000000"
 preserveAspectRatio="xMidYMid meet">
<metadata>
Created by potrace 1.15, written by Peter Selinger 2001-2017
</metadata>
<g transform="translate(0.000000,1217.000000) scale(0.100000,-0.100000)"
fill="#000000" stroke="none">
<path d="M6357 11024 c-21 -63 -96 -295 -167 -515 -122 -375 -205 -629 -522
-1604 -71 -220 -219 -674 -328 -1010 l-199 -610 -2032 -5 -2032 -5 1624 -1179
c893 -648 1632 -1187 1642 -1196 18 -17 15 -30 -108 -406 -70 -214 -184 -567
-255 -784 -71 -217 -187 -575 -258 -795 -180 -552 -370 -1136 -502 -1543 -62
-189 -110 -345 -108 -347 1 -1 116 79 253 179 138 100 860 625 1605 1166 745
541 1371 996 1392 1012 l36 28 514 -373 c282 -205 884 -643 1338 -972 454
-330 962 -699 1130 -821 168 -122 307 -220 308 -219 2 2 -46 158 -108 347
-150 462 -342 1053 -499 1536 -315 969 -397 1220 -516 1586 -123 376 -126 389
-108 406 10 10 749 548 1642 1196 l1624 1179 -2032 5 -2032 5 -199 610 c-109
336 -258 792 -330 1015 -72 223 -190 584 -261 803 -71 218 -187 577 -259 796
-71 220 -146 452 -167 515 -20 64 -40 116 -43 116 -3 0 -23 -52 -43 -116z"/>
</g>
</svg>
