<svg width="30" height="30" viewBox="0 0 30 30" fill="none" xmlns="http://www.w3.org/2000/svg">
<g clip-path="url(#clip0_103:37)">
<path d="M15.0008 14.672C18.3363 14.672 21.0405 11.3876 21.0405 7.33603C21.0405 3.2844 20.1527 0 15.0008 0C9.84894 0 8.96094 3.2844 8.96094 7.33603C8.96094 11.3876 11.6651 14.672 15.0008 14.672Z" fill="white"/>
<path d="M3.59299 25.8731C3.59196 25.6261 3.59093 25.8035 3.59299 25.8731V25.8731Z" fill="white"/>
<path d="M26.4082 26.0661C26.4115 25.9984 26.4093 25.5969 26.4082 26.0661V26.0661Z" fill="white"/>
<path d="M26.3941 25.5769C26.2823 18.519 25.3605 16.5079 18.3068 15.2349C18.3068 15.2349 17.3139 16.5001 14.9996 16.5001C12.6853 16.5001 11.6922 15.2349 11.6922 15.2349C4.71551 16.494 3.73768 18.4753 3.60911 25.3476C3.59857 25.9088 3.59368 25.9383 3.5918 25.8731C3.59223 25.9952 3.59274 26.221 3.59274 26.6146C3.59274 26.6146 5.27205 30 14.9996 30C24.727 30 26.4065 26.6146 26.4065 26.6146C26.4065 26.3617 26.4066 26.1858 26.4069 26.0662C26.405 26.1064 26.4012 26.0284 26.3941 25.5769Z" fill="white"/>
</g>
<defs>
<clipPath id="clip0_103:37">
<rect width="30" height="30" fill="white"/>
</clipPath>
</defs>
</svg>
