<svg width="30" height="30" viewBox="0 0 30 30" fill="none" xmlns="http://www.w3.org/2000/svg">
<path d="M7.01033 6.08292L18.9699 2.81847L18.3365 1.53829C17.9222 0.70617 16.9115 0.362542 16.0794 0.776916L5.37305 6.08292H7.01033Z" fill="white"/>
<path d="M22.6826 2.91278C22.5344 2.91278 22.3861 2.93299 22.2379 2.97342L19.4283 3.74153L10.8477 6.0829H20.5871H24.8319L24.3064 4.1559C24.1043 3.40464 23.4237 2.91278 22.6826 2.91278Z" fill="white"/>
<path d="M26.5873 7.26208H26.2033H25.6811H25.1589H21.1735H6.52892H4.60865H2.99158H2.69175H1.68782C1.15553 7.26208 0.680517 7.50801 0.370578 7.89544C0.229085 8.07399 0.12128 8.27949 0.0606401 8.50521C0.0235823 8.6467 0 8.79493 0 8.94653V9.14867V11.0689V27.7146C0 28.6445 0.754632 29.3991 1.68445 29.3991H26.5839C27.5138 29.3991 28.2684 28.6445 28.2684 27.7146V23.015H18.2729C16.6929 23.015 15.4093 21.7315 15.4093 20.1515V18.6085V18.0863V17.5642V16.4053C15.4093 15.6304 15.7192 14.9264 16.2212 14.4109C16.6659 13.9527 17.2622 13.6428 17.9293 13.5653C18.0404 13.5518 18.155 13.5451 18.2695 13.5451H26.8669H27.3891H27.9113H28.2684V8.94653C28.2718 8.01672 27.5171 7.26208 26.5873 7.26208Z" fill="white"/>
<path d="M29.4503 15.1553C29.2819 15.0003 29.0831 14.8824 28.8608 14.8049C28.6889 14.7477 28.507 14.714 28.315 14.714H28.2712H28.2375H27.7153H25.8321H18.2723C17.3425 14.714 16.5879 15.4686 16.5879 16.3985V17.2373V17.7595V18.2816V20.148C16.5879 21.0778 17.3425 21.8325 18.2723 21.8325H28.2712H28.315C28.507 21.8325 28.6889 21.7988 28.8608 21.7415C29.0831 21.6674 29.2819 21.5461 29.4503 21.3911C29.7872 21.0846 29.9994 20.6399 29.9994 20.148V16.3985C29.9994 15.9066 29.7872 15.4618 29.4503 15.1553ZM21.7895 18.6084C21.7895 19.0733 21.4121 19.4507 20.9472 19.4507H20.388C19.9231 19.4507 19.5458 19.0733 19.5458 18.6084V18.0492C19.5458 17.7797 19.6704 17.5405 19.8692 17.3889C20.0141 17.2777 20.1926 17.207 20.388 17.207H20.5295H20.9472C21.4121 17.207 21.7895 17.5843 21.7895 18.0492V18.6084Z" fill="white"/>
</svg>
